<?xml version="1.0" standalone="no"?>
<!DOCTYPE svg PUBLIC "-//W3C//DTD SVG 20010904//EN"
 "http://www.w3.org/TR/2001/REC-SVG-20010904/DTD/svg10.dtd">
<svg version="1.0" xmlns="http://www.w3.org/2000/svg"
 width="500.000000pt" height="500.000000pt" viewBox="0 0 500.000000 500.000000"
 preserveAspectRatio="xMidYMid meet">
<metadata>
Created by potrace 1.14, written by Peter Selinger 2001-2017
</metadata>
<g transform="translate(0.000000,500.000000) scale(0.100000,-0.100000)"
fill="#000000" stroke="none">
<path d="M2589 3713 c-2 -25 -7 -70 -13 -119 -4 -35 -2 -43 13 -47 15 -4 21 2
26 30 5 30 10 34 33 33 44 -3 52 -1 52 15 0 8 -3 15 -7 16 -33 3 -66 9 -69 12
-3 2 -1 12 2 21 5 14 15 17 46 13 38 -4 59 7 42 23 -5 4 -35 11 -66 15 -51 5
-58 4 -59 -12z"/>
<path d="M2247 3708 c-28 -10 -44 -45 -34 -73 4 -8 19 -17 34 -20 57 -13 76
-24 63 -40 -6 -7 -17 -12 -23 -10 -53 16 -67 15 -67 -4 0 -51 123 -36 136 16
9 33 -18 59 -67 67 -51 8 -47 31 4 30 22 -1 38 4 41 12 10 25 -42 38 -87 22z"/>
<path d="M2830 3623 c-75 -92 -75 -92 -55 -99 9 -4 23 0 32 8 21 22 82 3 94
-29 5 -13 16 -23 24 -23 14 0 15 9 10 57 -13 124 -20 144 -50 142 -5 0 -30
-25 -55 -56z m60 -27 c0 -30 -2 -33 -25 -28 l-25 4 21 29 c11 16 22 29 25 29
2 0 4 -15 4 -34z"/>
<path d="M2063 3662 c-9 -5 -6 -24 10 -70 21 -61 21 -64 4 -77 -32 -23 -55 -7
-78 56 -22 61 -25 64 -47 50 -10 -6 -9 -19 8 -63 27 -74 49 -93 103 -89 25 1
67 46 67 70 0 25 -39 131 -48 131 -4 0 -12 -4 -19 -8z"/>
<path d="M3066 3568 c-16 -23 -10 -44 25 -82 39 -42 10 -59 -31 -18 -23 24
-32 27 -44 18 -13 -10 -13 -14 2 -32 39 -47 101 -58 126 -23 17 25 12 44 -22
82 -37 39 -16 58 25 23 26 -22 33 -24 42 -12 9 11 5 19 -19 40 -39 32 -83 34
-104 4z"/>
<path d="M1774 3531 c-32 -14 -64 -60 -64 -93 0 -38 48 -88 85 -88 34 0 82 25
95 49 39 74 -40 164 -116 132z m72 -57 c24 -36 9 -78 -30 -82 -54 -6 -85 50
-49 90 23 26 59 23 79 -8z"/>
<path d="M3275 3483 c-4 -11 1 -23 14 -33 20 -15 20 -16 -20 -68 -37 -48 -45
-82 -21 -82 5 0 28 25 51 55 45 59 52 63 71 40 7 -8 16 -12 21 -9 20 12 6 32
-50 72 -51 35 -60 39 -66 25z"/>
<path d="M1580 3385 c-14 -17 -9 -26 52 -96 42 -47 50 -52 63 -39 13 14 11 19
-13 45 -15 17 -41 47 -59 67 -26 30 -33 34 -43 23z"/>
<path d="M1447 3252 c-33 -34 -40 -62 -26 -101 25 -71 133 -74 166 -6 18 37
12 68 -12 59 -8 -3 -12 -10 -9 -15 3 -5 -6 -20 -20 -34 -21 -21 -28 -23 -54
-14 -49 17 -48 99 0 99 11 0 18 8 18 20 0 29 -31 25 -63 -8z"/>
<path d="M3508 3179 c-59 -44 -66 -53 -56 -69 11 -17 13 -17 41 3 24 19 30 20
37 7 22 -38 35 -49 49 -41 11 7 10 15 -9 41 -21 29 -21 33 -6 48 15 15 17 15
30 -3 41 -57 42 -57 53 -43 9 10 3 24 -24 61 -19 26 -38 47 -41 47 -4 0 -37
-23 -74 -51z"/>
<path d="M2375 3199 c-114 -18 -228 -75 -302 -148 -52 -52 -119 -164 -108
-181 4 -6 26 -10 51 -9 37 2 43 6 42 23 -2 37 21 76 74 128 79 77 211 129 321
127 l42 0 -40 -13 c-101 -32 -193 -89 -230 -144 -27 -39 -33 -90 -12 -97 6 -3
76 -7 155 -9 78 -2 146 -6 149 -10 4 -3 -11 -6 -33 -7 -64 -1 -168 -10 -173
-15 -7 -7 32 -33 52 -34 10 0 15 -5 12 -11 -10 -15 -62 -6 -120 21 -87 39
-100 40 -142 18 -28 -15 -54 -20 -99 -19 -57 2 -65 -1 -100 -31 -22 -17 -40
-33 -42 -34 -1 -1 -4 -11 -7 -23 -5 -25 20 -41 64 -41 16 0 44 -8 61 -17 l31
-18 32 36 c48 53 62 55 103 11 18 -20 34 -40 34 -43 0 -11 79 -39 109 -39 16
0 44 12 66 30 50 40 66 43 116 25 59 -20 88 -19 129 6 35 22 59 48 72 82 6 15
2 13 -25 -7 -17 -13 -50 -29 -72 -35 l-40 -11 34 32 c40 38 61 84 61 137 0 22
6 43 13 48 6 4 44 8 82 9 39 0 81 4 95 8 19 6 32 2 50 -13 l25 -20 -22 -39
c-27 -47 -17 -62 39 -60 44 1 58 -7 58 -37 0 -26 -24 -55 -45 -55 -8 0 -19 -9
-25 -20 -21 -40 51 -80 81 -44 9 11 22 14 45 9 26 -4 35 -2 42 12 5 10 7 23 5
30 -2 6 10 19 26 28 52 26 37 57 -34 69 -22 4 -51 14 -64 23 l-24 16 26 14
c15 7 27 16 27 19 0 4 -14 32 -30 63 -89 166 -259 261 -480 266 -58 1 -127 -2
-155 -6z m289 -111 c-3 -5 -12 -4 -20 3 -7 6 -11 15 -8 21 3 5 12 4 20 -3 7
-6 11 -15 8 -21z m144 -70 c-5 -15 -23 -11 -26 6 -2 11 2 14 13 10 9 -4 14
-11 13 -16z m-411 -45 c-3 -3 -11 -2 -17 2 -8 5 -7 11 2 22 12 15 13 14 16 -1
2 -10 1 -20 -1 -23z m209 -1 c-10 -10 -29 15 -21 28 6 9 10 8 17 -4 6 -10 7
-20 4 -24z m-225 -238 c9 -11 8 -14 -2 -14 -7 0 -23 -10 -35 -21 -39 -37 -104
-22 -104 23 0 17 5 19 30 13 18 -4 30 -3 30 3 0 24 61 20 81 -4z"/>
<path d="M1305 3069 c-7 -11 22 -49 37 -49 5 0 30 -14 55 -31 40 -28 47 -30
60 -16 14 14 8 20 -56 61 -75 49 -86 52 -96 35z"/>
<path d="M3645 3021 c-77 -33 -79 -138 -4 -177 58 -30 129 14 129 80 0 63 -72
119 -125 97z m71 -52 c17 -14 18 -63 2 -76 -27 -21 -59 -22 -79 -2 -25 25 -24
47 2 75 22 23 50 24 75 3z"/>
<path d="M1360 2870 c-7 -16 -16 -30 -20 -30 -4 0 -33 12 -65 26 -47 22 -59
24 -66 13 -5 -8 -9 -16 -9 -19 1 -7 142 -70 156 -70 12 0 55 96 46 104 -13 14
-30 4 -42 -24z"/>
<path d="M3740 2763 c-64 -26 -70 -131 -10 -167 42 -24 83 -20 114 10 71 72
-9 194 -104 157z m74 -46 c11 -8 19 -26 19 -42 0 -52 -68 -75 -97 -33 -21 30
-20 44 4 68 23 23 49 26 74 7z"/>
<path d="M1157 2743 c-3 -4 -12 -34 -20 -66 -12 -43 -12 -59 -4 -62 53 -18
157 -42 161 -37 2 4 9 27 16 52 6 25 13 53 16 63 4 12 0 17 -14 17 -14 0 -21
-10 -28 -42 -6 -28 -15 -43 -24 -43 -15 0 -18 27 -9 70 3 12 -2 21 -13 23 -14
3 -19 -6 -24 -38 -5 -30 -11 -40 -23 -38 -16 3 -18 24 -10 77 4 23 -14 41 -24
24z"/>
<path d="M2793 2719 c4 -14 -2 -29 -20 -46 -22 -23 -31 -25 -76 -21 -29 3 -61
2 -71 -1 -17 -6 -15 -9 12 -20 54 -23 128 -15 165 17 22 20 23 78 1 86 -13 5
-15 2 -11 -15z"/>
<path d="M3057 2600 c-4 -17 -12 -19 -59 -15 -30 2 -60 5 -68 7 -8 2 -16 -6
-18 -18 -2 -16 5 -23 36 -32 82 -25 142 -9 142 37 0 33 -25 49 -33 21z"/>
<path d="M1964 2581 c-38 -23 -44 -38 -30 -70 10 -23 14 -23 86 -18 79 5 173
35 228 72 l33 23 -35 6 c-24 5 -45 2 -65 -9 -38 -19 -52 -19 -27 0 25 19 13
19 -22 1 -39 -20 -130 -39 -148 -32 -15 6 -15 8 1 26 23 25 18 25 -21 1z"/>
<path d="M2405 2591 l-30 -6 31 -22 c72 -52 208 -92 331 -98 75 -4 76 -4 109
29 38 38 41 53 19 82 -13 17 -14 18 -15 1 0 -10 -11 -22 -24 -27 -49 -18 -209
3 -281 37 l-30 15 30 -26 30 -26 -59 25 c-61 26 -63 26 -111 16z"/>
<path d="M2250 2511 c0 -11 9 -25 20 -31 33 -18 110 -19 158 -2 41 14 44 16
27 28 -10 8 -28 11 -39 8 -57 -14 -93 -11 -148 11 -14 5 -18 2 -18 -14z"/>
<path d="M1125 2476 c-24 -25 -39 -76 -33 -116 3 -25 5 -26 113 -31 59 -3 60
-2 65 27 3 16 5 35 4 42 -1 6 -2 21 -3 32 -4 63 -99 93 -146 46z m97 -33 c10
-9 18 -29 18 -45 0 -27 -1 -28 -55 -28 -53 0 -55 1 -55 27 0 54 54 81 92 46z"/>
<path d="M3878 2495 c-2 -2 -37 -5 -77 -7 l-73 -2 5 -61 c6 -70 36 -105 90
-105 64 0 97 48 89 130 -3 33 -21 57 -34 45z m2 -67 c0 -56 -58 -88 -94 -52
-15 15 -22 55 -11 66 3 2 27 5 55 7 46 2 50 0 50 -21z"/>
<path d="M1935 2447 c-6 -16 -8 -38 -6 -64 2 -40 144 -101 275 -119 26 -4 48
-10 51 -13 5 -9 -80 -3 -195 14 -52 7 -98 11 -102 9 -4 -3 -8 -33 -8 -68 0
-52 4 -66 23 -83 60 -54 191 -74 482 -77 325 -2 505 20 565 71 29 24 31 29 28
92 -3 74 5 69 -103 57 l-60 -6 40 13 c116 39 162 82 152 143 -8 46 -9 47 -42
34 -15 -6 -53 -13 -84 -17 -31 -3 -63 -7 -71 -9 -8 -1 -20 -3 -26 -3 -5 -1
-46 -37 -91 -81 -90 -90 -83 -89 -173 -29 -30 20 -83 50 -117 67 -57 29 -72
32 -186 36 -156 6 -253 17 -315 35 -24 7 -34 7 -37 -2z"/>
</g>
</svg>
